<?xml version="1.0" encoding="UTF-8" standalone="no"?>
<svg
   xmlns:dc="http://purl.org/dc/elements/1.1/"
   xmlns:cc="http://creativecommons.org/ns#"
   xmlns:rdf="http://www.w3.org/1999/02/22-rdf-syntax-ns#"
   xmlns:svg="http://www.w3.org/2000/svg"
   xmlns="http://www.w3.org/2000/svg"
   viewBox="0 0 2048 1292"
   height="1292"
   width="2048"
   xml:space="preserve"
   id="svg2"
   version="1.1"><metadata
     id="metadata8"><rdf:RDF><cc:Work
         rdf:about=""><dc:format>image/svg+xml</dc:format><dc:type
           rdf:resource="http://purl.org/dc/dcmitype/StillImage" /></cc:Work></rdf:RDF></metadata><defs
     id="defs6"><clipPath
       id="clipPath24"
       clipPathUnits="userSpaceOnUse"><path
         id="path22"
         d="M 0.923,0.033 H 1536 V 969 H 0.923 Z" /></clipPath><clipPath
       id="clipPath170"
       clipPathUnits="userSpaceOnUse"><path
         id="path168"
         d="M 0,969 H 1536 V 0 H 0 Z" /></clipPath><linearGradient
       id="linearGradient194"
       spreadMethod="pad"
       gradientTransform="matrix(78.889702,0,0,-78.889702,1359.3967,155.28905)"
       gradientUnits="userSpaceOnUse"
       y2="0"
       x2="1"
       y1="0"
       x1="0"><stop
         id="stop188"
         offset="0"
         style="stop-opacity:1;stop-color:#1d7946" /><stop
         id="stop190"
         offset="0.86249278"
         style="stop-opacity:1;stop-color:#7db340" /><stop
         id="stop192"
         offset="1"
         style="stop-opacity:1;stop-color:#7db340" /></linearGradient><linearGradient
       id="linearGradient216"
       spreadMethod="pad"
       gradientTransform="matrix(78.892136,0,0,-78.892136,1359.3711,167.58395)"
       gradientUnits="userSpaceOnUse"
       y2="0"
       x2="1"
       y1="0"
       x1="0"><stop
         id="stop210"
         offset="0"
         style="stop-opacity:1;stop-color:#1d7946" /><stop
         id="stop212"
         offset="0.86249278"
         style="stop-opacity:1;stop-color:#7db340" /><stop
         id="stop214"
         offset="1"
         style="stop-opacity:1;stop-color:#7db340" /></linearGradient><linearGradient
       id="linearGradient238"
       spreadMethod="pad"
       gradientTransform="matrix(78.876266,0,0,-78.876266,1359.3979,180.9668)"
       gradientUnits="userSpaceOnUse"
       y2="0"
       x2="1"
       y1="0"
       x1="0"><stop
         id="stop232"
         offset="0"
         style="stop-opacity:1;stop-color:#1d7946" /><stop
         id="stop234"
         offset="0.86249278"
         style="stop-opacity:1;stop-color:#7db340" /><stop
         id="stop236"
         offset="1"
         style="stop-opacity:1;stop-color:#7db340" /></linearGradient><linearGradient
       id="linearGradient260"
       spreadMethod="pad"
       gradientTransform="matrix(80.106163,0,0,-80.106163,1182.8594,167.58395)"
       gradientUnits="userSpaceOnUse"
       y2="0"
       x2="1"
       y1="0"
       x1="0"><stop
         id="stop254"
         offset="0"
         style="stop-opacity:1;stop-color:#272c6d" /><stop
         id="stop256"
         offset="0.86249278"
         style="stop-opacity:1;stop-color:#006eb8" /><stop
         id="stop258"
         offset="1"
         style="stop-opacity:1;stop-color:#006eb8" /></linearGradient><linearGradient
       id="linearGradient282"
       spreadMethod="pad"
       gradientTransform="matrix(77.800217,0,0,-77.800217,1270.6708,167.58395)"
       gradientUnits="userSpaceOnUse"
       y2="0"
       x2="1"
       y1="0"
       x1="0"><stop
         id="stop276"
         offset="0"
         style="stop-opacity:1;stop-color:#603032" /><stop
         id="stop278"
         offset="0.86249278"
         style="stop-opacity:1;stop-color:#c4003a" /><stop
         id="stop280"
         offset="1"
         style="stop-opacity:1;stop-color:#c4003a" /></linearGradient><clipPath
       id="clipPath292"
       clipPathUnits="userSpaceOnUse"><path
         id="path290"
         d="M 0,969 H 1536 V 0 H 0 Z" /></clipPath><clipPath
       id="clipPath328"
       clipPathUnits="userSpaceOnUse"><path
         id="path326"
         d="M 0,969 H 1536 V 0 H 0 Z" /></clipPath></defs><g
     transform="matrix(1.3333333,0,0,-1.3333333,0,1292)"
     id="g10"><path
       id="path12"
       style="fill:#113961;fill-opacity:1;fill-rule:nonzero;stroke:none"
       d="M 0.923,0.033 H 1536 V 969 H 0.923 Z" /><g
       transform="translate(0.9234,969.0003)"
       id="g14"><path
         id="path16"
         style="fill:#002640;fill-opacity:1;fill-rule:nonzero;stroke:none"
         d="m 0,0 v -323.284 l 592.329,0.172 0.133,-645.855 h 349.253 l -0.149,645.84 593.511,0.061 V 0 Z m 1273.647,-118.385 h 179.43 v -179.504 h -179.43 z" /></g><g
       id="g18"><g
         clip-path="url(#clipPath24)"
         id="g20"><g
           transform="translate(1340.2579,807.2207)"
           id="g26"><path
             id="path28"
             style="fill:#002640;fill-opacity:1;fill-rule:nonzero;stroke:none"
             d="m 0,0 c 0.172,0.711 0.223,1.383 0.394,2.144 0.274,1.333 0.805,2.497 0.989,3.79 0.125,0.71 0.175,1.421 0.398,2.132 0.172,0.582 0.344,1.164 0.532,1.747 0.257,0.933 0.531,1.828 0.937,2.671 0.359,0.809 0.262,1.739 0.617,2.551 0.176,0.348 0.41,0.68 0.461,1.078 0.074,0.449 0.172,0.852 0.258,1.246 0.035,0.188 0.137,0.36 0.137,0.543 0.136,0.711 0.097,1.379 0.359,2.004 0.355,0.805 0.691,1.426 1.371,2.008 0.805,0.625 1.77,0.625 2.672,0.938 0.258,0.132 0.578,0.085 0.84,-0.047 0.715,-0.489 1.519,-0.805 2.113,-1.426 0.52,-0.492 0.965,-1.07 1.051,-1.742 0.097,-0.758 0.137,-1.473 0,-2.231 -0.223,-0.89 -0.258,-1.781 -0.754,-2.554 C 12.016,14.269 11.758,13.691 11.535,13.07 11.313,12.574 11.313,12.043 11.09,11.551 10.422,9.988 9.703,8.477 9.086,6.867 8.851,6.379 8.902,5.797 8.726,5.309 8.148,3.969 7.961,2.586 7.293,1.242 7.168,1.023 7.082,0.758 6.949,0.488 6.762,-0.047 6.578,-0.531 6.402,-1.113 6.281,-1.691 5.969,-2.148 5.836,-2.719 5.687,-3.215 5.773,-3.75 6.23,-4.016 c 0.172,-0.09 0.395,-0.09 0.606,-0.046 0.422,0.093 0.594,0.492 0.867,0.804 0.383,0.578 0.754,1.11 1.199,1.652 0.133,0.223 0.258,0.446 0.395,0.669 0.902,1.199 2.016,1.921 2.906,3.081 0.309,0.348 0.531,0.704 0.84,1.02 0.68,0.844 1.348,1.559 2.09,2.277 0.777,0.801 1.57,1.469 2.371,2.184 0.187,0.133 0.445,0.219 0.621,0.359 2.016,1.739 3.793,3.387 5.551,5.395 0.343,0.355 0.48,0.844 0.89,1.113 0.828,0.492 1.645,0.801 2.434,1.172 0.41,0.223 0.867,0.141 1.25,0.274 0.183,0.046 0.418,0 0.594,-0.086 0.754,-0.227 1.062,-0.958 1.234,-1.715 0.102,-0.403 0.063,-0.801 0.063,-1.203 C 30.043,12.043 29.906,11.148 29.82,10.258 29.598,8.742 29.238,7.312 28.742,5.844 28.668,5.57 28.473,5.309 28.398,4.992 27.902,3.344 27.766,1.738 27.41,0.043 c -0.039,-0.266 0.047,-0.574 -0.039,-0.848 -0.309,-1.074 -0.406,-2.14 -0.629,-3.257 -0.051,-0.352 -0.051,-0.669 0.035,-1.024 0.098,-0.312 0.321,-0.531 0.633,-0.578 0.938,-0.223 1.555,0.578 2.148,1.203 0.262,0.313 0.52,0.621 0.793,0.98 0.766,0.981 1.657,1.829 2.497,2.766 0.582,0.578 0.988,1.289 1.609,1.871 0.816,0.672 1.394,1.43 2.101,2.141 0.344,0.316 0.579,0.711 0.875,1.027 1.04,1.024 2.016,1.961 3.13,2.899 0.902,0.761 2.015,1.207 3.226,1.382 0.062,0 0.211,0.043 0.297,0 0.543,-0.222 1.078,-0.539 1.25,-1.07 0.68,-1.648 0,-3.344 -0.395,-5.082 -0.136,-0.668 -0.175,-1.562 0.664,-1.605 1.114,-0.047 1.645,1.066 2.18,1.965 0.184,0.218 0.356,0.398 0.641,0.484 0.394,0.133 0.84,0 1.297,0.133 0.296,0.093 0.609,0.222 0.878,0.312 0.582,0.227 1.239,0.313 1.832,0.141 0.532,-0.18 1.024,-0.672 1.149,-1.254 0.199,-1.067 0.273,-2.055 0.371,-3.121 0.035,-0.356 0.121,-0.668 0.309,-0.977 0.222,-0.355 0.629,-0.492 0.976,-0.679 0.395,-0.172 0.852,-0.172 1.25,-0.352 0.445,-0.219 0.988,0.047 1.422,-0.18 0.641,-0.355 1.52,-0.801 1.297,-1.605 -0.188,-0.531 -0.434,-0.981 -0.617,-1.516 -0.754,-0.629 -1.559,-1.207 -2.461,-1.652 -0.446,-0.219 -0.891,-0.309 -1.371,-0.356 -0.719,-0.043 -1.387,0.137 -2.067,0.356 -0.851,0.312 -1.605,0.898 -2.226,1.613 -0.532,0.621 -0.789,1.379 -1.199,2.09 -0.27,0.449 -0.84,0.406 -1.211,0.09 -0.926,-0.934 -1.867,-1.738 -2.981,-2.547 -0.344,-0.309 -0.766,-0.531 -1.16,-0.84 -0.719,-0.449 -1.609,-0.184 -2.188,0.36 -0.496,0.441 -1.066,0.75 -1.472,1.328 -0.531,0.672 -0.617,1.48 -0.805,2.277 -0.136,0.492 0.102,1.035 -0.136,1.516 -0.258,0.453 -0.887,0.496 -1.161,0.05 -0.89,-1.429 -1.695,-2.675 -2.941,-3.796 -0.262,-0.266 -0.36,-0.625 -0.656,-0.895 -0.582,-0.445 -1.125,-0.84 -1.571,-1.422 -0.976,-1.242 -1.781,-2.453 -2.906,-3.523 -0.48,-0.399 -1.062,-0.668 -1.469,-1.161 -0.41,-0.531 -0.621,-1.113 -0.976,-1.695 -0.535,-0.758 -1.422,-1.203 -2.278,-0.844 -1.382,0.582 -2.582,1.692 -2.941,3.254 -0.211,0.848 -0.172,1.7 -0.309,2.547 -0.273,1.598 -0.41,3.164 -0.359,4.723 0,0.266 0.039,0.578 0,0.847 v 0.579 c 0.137,0.855 0.359,1.656 0.309,2.453 0,0.226 0,0.449 0.05,0.668 0.184,0.804 0.137,1.566 0.27,2.367 0.09,0.398 0.09,0.805 -0.047,1.199 C 22.289,3.969 22.203,4.191 22.004,4.324 21.695,4.594 21.215,4.465 20.992,4.105 20.051,2.762 19.164,1.648 18.086,0.488 17.234,-0.531 16.344,-1.34 15.551,-2.453 15.008,-3.125 14.66,-3.793 14.156,-4.461 13.414,-5.398 12.633,-6.156 11.98,-7.184 c -0.222,-0.355 -0.632,-0.535 -0.89,-0.89 -0.891,-1.114 -1.657,-2.188 -2.809,-3.078 -0.457,-0.309 -0.578,-0.891 -1.023,-1.204 -0.977,-0.761 -1.164,-1.878 -1.731,-2.808 -0.09,-0.137 -0.222,-0.25 -0.422,-0.27 -0.742,-0.058 -1.496,-0.058 -2.261,-0.023 -0.125,0 -0.274,0.023 -0.36,0.07 -0.84,0.848 -1.496,1.739 -2.039,2.762 -0.547,1.074 -0.621,2.23 -0.855,3.437 -0.223,1.161 -0.223,2.227 -0.184,3.348 C -0.543,-3.879 -0.496,-1.961 0,0" /></g><g
           transform="translate(1389.0664,781.6582)"
           id="g30"><path
             id="path32"
             style="fill:#002640;fill-opacity:1;fill-rule:nonzero;stroke:none"
             d="M 0,0 C 0.187,-0.07 0.359,-0.231 0.531,-0.176 1.199,0 1.742,0.445 2.176,0.98 2.93,1.914 3.609,2.762 4.414,3.652 4.945,4.191 5.23,4.859 5.664,5.484 5.898,5.75 6.156,5.973 6.379,6.238 6.727,6.641 6.961,7.09 7.309,7.492 8.148,8.516 9,9.406 9.867,10.316 c 0.383,0.536 0.567,1.114 1.012,1.649 0.359,0.488 0.707,0.898 1.125,1.426 0.176,0.269 0.262,0.535 0.387,0.855 0.32,0.844 0.441,1.738 0.988,2.582 0.445,0.676 0.891,1.25 1.309,1.922 0.273,0.398 0.21,0.887 0.484,1.242 0.578,0.891 1.406,1.344 2.137,2.098 0.222,0.183 0.445,0.359 0.707,0.492 0.32,0.133 0.519,0.312 0.875,0.176 0.187,-0.086 0.421,-0.219 0.582,-0.309 0.765,-0.359 1.594,-0.398 2.14,-1.027 0.492,-0.578 0.629,-1.293 0.778,-2.008 C 22.504,18.562 21.984,17.859 21.746,17.09 21.66,16.961 21.562,16.828 21.437,16.695 20.992,16.34 20.461,16.246 19.969,15.934 19.746,15.762 19.559,15.578 19.387,15.359 19.25,15.09 19.113,14.824 18.942,14.598 18.594,14.156 18.371,13.801 18.016,13.344 17.531,12.676 17.086,12.144 16.578,11.477 15.914,10.453 15.07,9.813 14.402,8.836 13.563,7.492 12.625,6.469 11.734,5.172 11.586,4.949 11.5,4.68 11.375,4.41 10.656,3.117 9.68,2.137 8.828,0.848 8.656,0.621 8.605,0.355 8.469,0.09 8.246,-0.539 7.68,-0.941 7.281,-1.477 6.863,-2.051 6.504,-2.898 7.012,-3.52 c 0.691,-0.808 1.68,-1.296 2.445,-2.058 1.473,-1.379 2.227,-3.211 3.031,-4.992 0.223,-0.489 0.344,-1.028 0.481,-1.61 0.062,-0.265 0.176,-0.535 0.285,-0.801 0.383,-1.335 0.519,-2.632 0.828,-4.015 0.188,-0.891 0.051,-1.699 0.188,-2.539 0.035,-0.363 0.195,-0.719 0.132,-1.074 -0.097,-0.864 0,-1.75 0.09,-2.645 0.133,-0.937 0.258,-1.875 0.258,-2.812 0.051,-0.27 -0.062,-0.579 -0.125,-0.844 -0.086,-1.297 0.102,-2.59 0.102,-3.879 0.023,-0.406 -0.102,-0.805 -0.137,-1.254 -0.098,-0.668 -0.051,-1.328 -0.125,-2.004 -0.063,-0.449 -0.063,-0.891 -0.16,-1.336 -0.481,-2.187 -0.715,-4.281 -1.473,-6.293 -0.074,-0.222 0,-0.535 -0.074,-0.754 -0.133,-0.316 -0.395,-0.633 -0.629,-0.89 -0.309,-0.45 -0.543,-0.852 -0.937,-1.168 -0.891,-0.668 -1.61,-1.379 -2.399,-2.094 -0.188,-0.219 -0.137,-0.625 -0.41,-0.754 -0.309,-0.137 -0.68,-0.137 -0.988,-0.273 -0.708,-0.352 -1.461,-0.575 -2.215,-0.938 -0.235,-0.086 -0.457,-0.262 -0.668,-0.355 -0.641,-0.133 -1.086,-0.446 -1.657,-0.621 -0.355,-0.133 -0.679,-0.047 -1.038,-0.133 -0.442,-0.09 -0.84,-0.223 -1.247,-0.403 -0.394,-0.14 -0.793,0.047 -1.199,-0.043 -0.582,-0.132 -1.113,-0.32 -1.695,-0.406 -1.336,-0.219 -2.668,-0.047 -3.821,-0.754 -1.038,-0.09 -2.027,-0.355 -3.038,-0.547 -0.446,-0.14 -0.844,0 -1.29,0.043 -0.504,0.09 -0.949,-0.043 -1.445,-0.093 -0.617,0 -1.199,0.132 -1.816,-0.047 -0.235,-0.043 -0.457,-0.129 -0.68,-0.176 -0.93,-0.133 -1.867,-0.09 -2.809,-0.133 -0.875,-0.09 -1.777,0.043 -2.679,0 -0.176,0 -0.297,-0.09 -0.434,-0.133 -0.719,-0.093 -1.387,-0.05 -2.101,0 -0.223,0 -0.399,0.043 -0.571,0.133 -0.418,0.09 -0.816,0 -1.199,0.09 -0.508,0.09 -0.953,-0.047 -1.434,0 -0.593,0 -1.222,-0.09 -1.792,-0.18 -0.36,-0.043 -0.766,0.043 -1.114,0.09 -0.703,0 -1.383,-0.09 -2.101,0 -0.567,0.09 -1.16,0.18 -1.731,0.266 -0.457,0.043 -0.891,-0.086 -1.297,-0.133 -2.226,-0.133 -4.379,0.465 -6.601,0.953 -0.36,0.086 -0.68,0.313 -1.028,0.449 -0.445,0.172 -0.84,-0.047 -1.285,0 -0.223,0.039 -0.457,0.125 -0.68,0.172 -0.21,0.141 -0.558,0.051 -0.929,0.086 -0.668,0.188 -1.285,0.32 -1.953,0.496 -1.063,0.356 -1.879,1.246 -2.891,1.645 -0.547,0.183 -1.039,0.359 -1.57,0.543 -0.348,0.129 -0.668,0.402 -0.977,0.621 -0.633,0.449 -1.238,0.672 -1.867,1.027 -0.359,0.176 -0.719,0.399 -1.09,0.668 -1.234,1.027 -2.398,1.965 -3.523,3.078 -0.703,0.758 -1.235,1.61 -1.903,2.414 -0.632,0.75 -1.125,1.598 -1.472,2.492 -0.121,0.27 -0.36,0.497 -0.543,0.758 -0.485,0.942 -0.657,1.965 -1.125,2.946 -0.125,0.363 -0.434,0.664 -0.532,1.113 -0.062,0.402 0.047,0.758 0.047,1.113 0.102,1.918 0.223,3.793 0.485,5.75 0.148,0.938 0.183,1.832 0.371,2.774 0.097,0.578 0.269,1.113 0.445,1.648 0.258,0.816 -0.039,1.75 0.086,2.688 0.051,0.226 0.137,0.449 0.172,0.722 0.101,0.574 -0.035,1.11 0.051,1.688 0.222,1.254 0.359,2.457 0.715,3.703 0.136,0.492 0.398,0.98 0.57,1.476 0.457,1.379 0.828,2.758 1.77,4.012 0.519,0.758 0.964,1.469 1.507,2.274 0.172,0.226 0.309,0.398 0.531,0.582 0.704,0.445 1.235,0.98 1.954,1.464 0.394,0.274 0.617,0.723 1.039,1.079 0.246,0.226 0.617,0.398 0.925,0.484 1.114,0.359 2.227,0.711 3.301,1.164 0.485,0.18 1.028,0.219 1.559,0.355 0.172,0 0.371,0.09 0.543,0.18 0.433,0.133 0.879,0.086 1.386,0.176 1.692,0.359 3.09,0.715 4.797,0.668 0.395,0 0.754,0.09 1.149,0.18 0.273,0.085 0.594,0.085 0.855,0.085 0.629,-0.042 1.246,0.184 1.879,0.368 1.063,0.215 2.086,0 3.153,0.215 0.32,0.093 0.64,0.183 0.988,0.265 0.406,0.09 0.851,0.051 1.25,0.141 0.801,0.261 1.605,0.176 2.41,0.449 0.309,0.082 0.629,-0.051 0.977,0.035 0.765,0.188 1.57,0.047 2.273,0.356 0.274,0.14 0.496,0.273 0.766,0.32 0.804,0.223 1.558,0.18 2.312,0.262 0.508,0.05 1.039,0.05 1.508,0.05 0.644,-0.05 1.262,0 1.941,0.172 0.348,0.051 0.606,-0.039 0.965,-0.129 0.496,-0.093 0.891,0.129 1.348,0.223 0.394,0.039 0.754,0.039 1.164,-0.094 0.223,-0.039 0.383,-0.129 0.605,-0.129 1.754,-0.222 3.438,-0.535 5.141,-0.984 0.68,-0.176 1.285,-0.355 1.953,-0.445 C -7.973,2.582 -7.406,2.227 -6.687,2.051 -5.082,1.644 -3.609,1.289 -2.051,0.848 -1.383,0.621 -0.715,0.266 0,0 m 1.965,-7.902 c -0.086,0.062 -0.223,0.136 -0.332,0.183 -0.867,0.266 -1.77,0.446 -2.57,0.938 -0.496,0.308 -1.028,0.226 -1.559,0.269 -0.817,0.09 -1.473,0.578 -2.227,0.801 -0.804,0.266 -1.691,0.266 -2.46,0.625 -0.309,0.172 -0.629,0.355 -0.989,0.399 -0.879,0.14 -1.73,0.312 -2.582,0.714 -0.176,0.09 -0.359,0.18 -0.531,0.18 -0.262,0.047 -0.535,0.047 -0.805,0.047 -1.211,0.043 -2.41,0.308 -3.648,0.398 -0.852,0.047 -1.657,0 -2.508,0.047 -1.078,0.09 -2.09,-0.094 -3.168,-0.137 -0.531,0 -0.977,-0.226 -1.519,-0.308 -0.84,-0.176 -1.606,-0.094 -2.399,-0.176 -2.188,-0.184 -4.375,-0.184 -6.563,-0.32 -0.398,0 -0.804,-0.219 -1.199,-0.133 h -0.668 c -0.222,-0.043 -0.398,-0.129 -0.621,-0.172 -0.629,-0.14 -1.258,-0.14 -1.879,-0.269 -0.679,-0.141 -1.246,-0.223 -1.914,-0.184 -0.234,0.043 -0.496,0.086 -0.719,0.086 -0.136,-0.043 -0.257,-0.043 -0.406,-0.086 -0.531,-0.312 -1.152,-0.312 -1.746,-0.578 -0.121,-0.09 -0.297,-0.18 -0.445,-0.266 -0.481,-0.222 -1.063,-0.133 -1.606,-0.265 -0.285,-0.137 -0.73,-0.274 -1.187,-0.364 -0.344,-0.039 -0.703,0.051 -1.063,-0.039 -0.234,-0.043 -0.48,-0.129 -0.718,-0.179 -0.664,-0.09 -1.297,-0.047 -1.914,-0.313 -0.309,-0.18 -0.532,-0.449 -0.84,-0.621 -0.547,-0.316 -1.125,-0.449 -1.621,-0.805 -0.926,-0.629 -1.594,-1.343 -2.348,-2.051 -0.668,-1.296 -1.152,-2.632 -1.805,-3.968 -0.164,-0.36 -0.164,-0.719 -0.347,-1.078 -0.172,-0.395 -0.383,-0.75 -0.481,-1.2 -0.324,-1.472 -0.187,-2.808 -0.398,-4.203 -0.098,-0.629 -0.223,-1.172 -0.371,-1.789 -0.086,-0.265 0,-0.492 0,-0.758 0.05,-1.117 -0.161,-2.136 -0.309,-3.257 -0.035,-0.399 0.086,-0.758 0.148,-1.157 0.075,-1.386 -0.148,-2.726 0.039,-4.105 0.075,-0.805 0.653,-1.375 0.926,-2.098 0.274,-0.758 0.496,-1.519 1.028,-2.183 0.629,-0.805 0.754,-1.871 1.691,-2.411 1.027,-0.625 1.746,-1.515 2.781,-2.144 0.164,-0.086 0.387,-0.125 0.571,-0.223 0.543,-0.312 0.976,-0.801 1.57,-1.023 1.383,-0.582 2.707,-1.156 4.191,-1.559 0.457,-0.133 1.102,-0.133 1.707,-0.312 0.407,-0.133 0.766,-0.317 1.16,-0.446 0.274,-0.093 0.543,0.047 0.817,-0.043 1.016,-0.183 1.918,-0.312 2.93,-0.492 0.371,-0.051 0.633,-0.308 0.976,-0.269 h 0.645 c 0.234,-0.039 0.445,-0.172 0.703,-0.223 0.754,-0.043 1.422,-0.141 2.187,-0.269 0.176,0 0.41,-0.129 0.582,-0.129 0.668,-0.047 1.336,-0.094 1.965,-0.403 0.399,-0.179 0.805,-0.222 1.25,-0.312 1.387,-0.266 2.707,-0.356 4.094,-0.356 0.457,0 0.852,0.039 1.297,0 0.531,-0.043 1.074,-0.043 1.656,-0.136 1.113,-0.18 2.227,-0.09 3.34,-0.09 0.269,0 0.578,0.183 0.902,0.129 0.121,-0.039 0.258,-0.039 0.383,-0.039 0.418,0.093 0.828,0.226 1.223,0.269 0.211,0 0.433,0.09 0.656,0.133 0.445,0.09 0.891,-0.043 1.348,0.09 0.394,0.133 0.754,0.312 1.148,0.222 0.633,-0.175 1.211,-0.089 1.781,0.047 1.125,0.266 2.153,0.575 3.227,0.977 0.941,0.308 1.867,0.758 2.855,0.894 0.485,0.047 1.028,-0.136 1.559,0.047 1.113,0.36 2.262,0.442 3.426,0.535 0.394,0.043 0.8,0.215 1.199,0.313 0.406,0.043 0.766,0.086 1.125,0.18 0.492,0.125 0.937,0.347 1.211,0.754 0.617,0.8 1.433,1.335 1.765,2.23 0.149,0.445 0.274,0.895 0.372,1.383 0.222,0.937 0.41,1.824 0.445,2.765 0.039,0.805 -0.133,1.606 -0.223,2.454 -0.148,0.933 0.223,1.871 -0.258,2.722 -0.097,1.114 -0.062,2.27 0,3.383 0,0.984 -0.062,1.969 -0.187,2.945 -0.098,0.672 0,1.383 0.223,2.051 0.125,0.531 -0.133,1.027 -0.27,1.567 -0.102,0.335 0,0.64 -0.051,0.996 -0.051,0.582 -0.32,1.109 -0.383,1.687 -0.05,0.356 -0.05,0.672 -0.148,0.985 -0.137,0.535 0.098,1.031 -0.051,1.562 -0.086,0.18 -0.121,0.309 -0.222,0.492 -0.223,0.621 -0.172,1.293 -0.395,1.918 -0.172,0.535 -0.543,0.891 -0.891,1.383 -0.445,0.711 -0.668,1.473 -0.937,2.23 -0.188,0.442 -0.051,0.938 -0.223,1.383 -0.086,0.18 -0.222,0.399 -0.398,0.528" /></g><g
           transform="translate(1350.1719,767.877)"
           id="g34"><path
             id="path36"
             style="fill:#002640;fill-opacity:1;fill-rule:nonzero;stroke:none"
             d="M 0,0 C 0.086,1.246 1.164,2.094 2.238,2.676 3.152,3.164 4.316,3.031 5.402,2.723 5.887,2.586 6.293,2.227 6.777,1.914 7.309,1.558 7.766,1.109 7.902,0.488 8.109,-0.449 7.578,-1.203 7.355,-2.055 7.309,-2.227 7.355,-2.414 7.27,-2.586 7.047,-3.215 6.738,-3.84 6.687,-4.504 c 0,-0.41 0.137,-0.762 0.137,-1.117 0.051,-0.582 -0.183,-1.16 -0.269,-1.664 -0.039,-0.492 0.047,-0.985 -0.039,-1.473 -0.184,-0.805 -0.321,-1.519 -0.36,-2.316 -0.097,-0.582 -0.183,-1.157 0.039,-1.743 0.184,-0.492 0.137,-1.031 0.223,-1.562 0.047,-0.445 -0.176,-0.801 -0.262,-1.211 -0.035,-0.308 0,-0.574 0.137,-0.84 0.172,-0.492 -0.098,-0.937 0.039,-1.429 0.086,-0.309 0.184,-0.578 0.27,-0.895 0.175,-0.664 -0.543,-0.973 -1.075,-0.973 -0.941,0 -1.878,-0.097 -2.757,0.215 -0.582,0.18 -1.04,0.625 -1.434,1.121 -0.445,0.446 -0.617,1.067 -0.703,1.645 -0.113,0.848 -0.371,1.652 -0.371,2.496 0,0.273 0.047,0.539 0,0.808 -0.176,1.211 -0.223,2.368 -0.176,3.571 0.051,0.484 0.176,0.973 0.137,1.465 0,0.316 -0.086,0.629 0,0.937 0.187,0.731 0.347,1.446 0.222,2.246 -0.136,1.078 0,2.098 -0.097,3.168 C 0.309,-1.34 -0.035,-0.715 0,0" /></g><g
           transform="translate(1348.7891,764.1738)"
           id="g38"><path
             id="path40"
             style="fill:#002640;fill-opacity:1;fill-rule:nonzero;stroke:none"
             d="M 0,0 C 0.023,-0.312 0.133,-0.625 0,-0.898 -0.273,-1.379 -0.41,-1.965 -0.855,-2.277 -1.164,-2.5 -1.523,-2.5 -1.82,-2.586 c -0.223,-0.09 -0.457,-0.269 -0.715,-0.355 -0.371,-0.094 -0.531,-0.137 -0.891,-0.184 -1.238,-0.144 -2.398,-0.086 -3.66,-0.234 -0.668,-0.137 -1.285,0.113 -1.828,0.418 -0.484,0.355 -0.965,0.621 -1.336,1.023 -0.754,0.805 -0.617,2.004 -0.262,2.941 0.223,0.539 0.571,1.028 1.067,1.34 0.531,0.36 1.074,0.532 1.656,0.586 0.926,0.086 1.879,-0.226 2.816,0.086 1.25,-0.183 2.336,-0.312 3.5,-0.762 C -0.582,1.918 -0.039,0.981 0,0" /></g><g
           transform="translate(1358.9141,763.9941)"
           id="g42"><path
             id="path44"
             style="fill:#002640;fill-opacity:1;fill-rule:nonzero;stroke:none"
             d="M 0,0 C 0.047,0.445 0.172,0.891 0.445,1.297 0.715,1.742 1.199,2.008 1.691,2.32 2.238,2.633 2.855,2.719 3.387,2.988 3.781,3.215 4.227,3.301 4.684,3.348 5.289,3.434 5.945,3.57 6.551,3.434 8.148,2.988 9.641,2.496 11.152,1.875 11.473,1.742 11.684,1.387 11.82,1.023 12.055,-0.09 11.941,-1.297 10.891,-1.965 10.383,-2.277 9.852,-2.453 9.32,-2.453 7.984,-2.543 6.687,-2.32 5.352,-2.496 4.414,-2.59 3.438,-2.723 2.484,-2.32 1.742,-2.012 0.949,-1.824 0.406,-1.07 0.223,-0.719 -0.039,-0.398 0,0" /></g><g
           transform="translate(1348.9727,743.8652)"
           id="g46"><path
             id="path48"
             style="fill:#002640;fill-opacity:1;fill-rule:nonzero;stroke:none"
             d="m 0,0 c 0.051,0.496 0.223,0.981 0.707,1.207 0.84,0.309 1.742,0.441 2.582,0.441 0.766,0 1.52,-0.308 2.273,-0.265 0.547,0 1.04,0.312 1.571,0.312 C 7.395,1.648 7.715,1.562 7.977,1.477 8.555,1.289 9.137,1.516 9.633,1.207 10.891,0.488 11.016,-1.426 10.078,-2.457 8.914,-2.633 7.801,-2.941 6.641,-3.078 6.02,-3.164 5.441,-3.348 4.809,-3.164 4.586,-3.078 4.414,-2.941 4.129,-2.906 3.387,-2.809 2.633,-2.855 2.039,-2.367 1.547,-2.012 1.113,-1.605 0.582,-1.293 0.125,-1.027 -0.051,-0.492 0,0" /></g><g
           transform="translate(1370.9922,744.6621)"
           id="g50"><path
             id="path52"
             style="fill:#002640;fill-opacity:1;fill-rule:nonzero;stroke:none"
             d="m 0,0 c 0,0.68 0.582,1.16 1.211,1.344 0.793,0.269 1.609,0 2.449,0.175 0.371,0.047 0.68,-0.136 1.027,-0.175 0.715,-0.047 1.344,0.269 2.012,0.488 0.36,0.094 0.668,-0.266 1.028,-0.219 0.793,0.086 1.558,0.313 2.398,0.399 0.234,0 0.457,-0.043 0.68,-0.18 C 11.25,1.48 11.473,1.031 11.559,0.492 11.66,-0.086 11.832,-0.621 11.66,-1.152 11.523,-1.512 11.301,-1.777 10.992,-2 10.668,-2.184 10.359,-2.316 9.988,-2.356 8.703,-2.629 7.543,-3.07 6.254,-3.207 5.367,-3.293 4.465,-3.379 3.621,-3.121 3.078,-2.934 2.496,-2.848 1.941,-2.668 1.57,-2.582 1.262,-2.5 0.941,-2.27 0.273,-1.691 0,-0.84 0,0" /></g><g
           transform="translate(1380.0156,748.9043)"
           id="g54"><path
             id="path56"
             style="fill:#002640;fill-opacity:1;fill-rule:nonzero;stroke:none"
             d="m 0,0 c -0.184,-0.168 -0.418,-0.316 -0.664,-0.359 -0.273,-0.086 -0.496,0.043 -0.758,0.043 -0.367,0.05 -0.726,-0.043 -1.035,0.093 -0.313,0.137 -0.668,0.266 -0.977,0.266 -0.496,0.043 -1.027,-0.18 -1.523,0.09 -0.68,0.359 -1.297,0.847 -1.73,1.515 -0.395,0.629 -0.11,1.293 -0.27,1.965 -0.125,0.578 0,1.11 0.133,1.696 0.027,0.398 -0.196,0.757 -0.133,1.16 0.207,2.226 0.43,4.367 0.801,6.566 0.125,0.715 0.051,1.434 0.176,2.145 0.035,0.312 0.183,0.578 0.183,0.847 0.039,0.891 -0.148,1.742 -0.234,2.633 0,0.356 0.086,0.711 0.234,1.067 0.297,0.535 0.52,1.25 1.113,1.472 0.754,0.274 1.559,0.309 2.36,0.496 0.261,0.035 0.484,0 0.707,-0.09 0.902,-0.449 2.051,-0.761 2.41,-1.742 C 1.078,19.062 0.668,18.305 0.434,17.496 0.09,15.98 0.262,14.512 0,12.949 -0.047,12.594 -0.047,12.281 -0.047,12 -0.047,11.105 -0.184,10.215 -0.281,9.324 -0.32,8.828 -0.543,8.387 -0.543,7.898 -0.629,7.223 -0.664,6.605 -0.766,5.93 -0.852,4.773 -0.715,3.613 -0.133,2.543 0.039,2.227 -0.098,1.879 0,1.559 0.125,1.027 0.484,0.449 0,0" /></g><g
           transform="translate(1383.1719,766.627)"
           id="g58"><path
             id="path60"
             style="fill:#002640;fill-opacity:1;fill-rule:nonzero;stroke:none"
             d="m 0,0 c 0.258,0.359 0.812,0.183 1.211,0 0.133,-0.043 0.355,-0.043 0.492,0.047 1.473,1.156 3.168,0.222 4.586,-0.41 0.262,-0.082 0.535,-0.082 0.805,-0.219 0.707,-0.309 1.523,-0.754 1.695,-1.559 0.137,-0.754 0,-1.476 -0.394,-2.097 C 8.07,-4.731 7.578,-5.039 7.23,-5.531 7.094,-5.621 6.922,-5.699 6.785,-5.699 5.934,-5.898 5.09,-5.859 4.203,-5.949 3.965,-5.992 3.742,-6.035 3.535,-6.086 3.227,-6.125 2.953,-6.035 2.68,-5.898 2.324,-5.723 1.879,-5.77 1.52,-5.664 0.812,-5.356 0.145,-5 -0.398,-4.457 c -0.223,0.262 -0.395,0.574 -0.446,0.93 -0.035,0.496 0.051,1.027 0.274,1.476 C -0.25,-1.387 -0.445,-0.625 0,0" /></g><g
           transform="translate(1396.5704,691.9238)"
           id="g62"><path
             id="path64"
             style="fill:#002640;fill-opacity:1;fill-rule:nonzero;stroke:none"
             d="m 0,0 -9.16,23.91 c -0.11,0.328 -0.496,0.598 -0.817,0.598 h -4.238 c -0.336,0 -0.707,-0.27 -0.828,-0.598 L -24.625,0 c -0.125,-0.328 0.035,-0.598 0.355,-0.598 h 5.973 c 0.336,0 0.707,0.27 0.84,0.598 l 0.879,2.34 c 0.074,0.199 0.308,0.355 0.496,0.355 l 7.566,-0.004 c 0.207,0 0.418,-0.16 0.504,-0.359 L -7.168,0 c 0.121,-0.328 0.492,-0.598 0.816,-0.598 h 5.981 c 0.324,0 0.496,0.27 0.371,0.598 m -10.445,8.004 h -3.586 c -0.184,0 -0.297,0.137 -0.211,0.348 l 2.043,5.324 1.953,-5.324 c 0.086,-0.211 -0.016,-0.348 -0.199,-0.348" /></g><g
           transform="translate(1442.3672,691.9238)"
           id="g66"><path
             id="path68"
             style="fill:#002640;fill-opacity:1;fill-rule:nonzero;stroke:none"
             d="m 0,0 -9.176,23.91 c -0.109,0.328 -0.457,0.598 -0.804,0.598 h -4.239 c -0.324,0 -0.691,-0.27 -0.816,-0.598 L -24.617,0 c -0.137,-0.328 0.023,-0.598 0.347,-0.598 h 5.981 c 0.336,0 0.707,0.27 0.844,0.598 l 0.875,2.34 c 0.09,0.199 0.312,0.355 0.508,0.355 l 7.566,-0.004 c 0.187,0 0.422,-0.16 0.496,-0.359 L -7.148,0 c 0.113,-0.328 0.484,-0.598 0.804,-0.598 h 5.985 c 0.332,0 0.492,0.27 0.359,0.598 m -10.461,8.004 h -3.562 c -0.196,0 -0.282,0.137 -0.207,0.348 l 2.039,5.324 1.953,-5.324 c 0.086,-0.211 -0.012,-0.348 -0.223,-0.348" /></g><g
           transform="translate(1319.5625,703.8379)"
           id="g70"><path
             id="path72"
             style="fill:#002640;fill-opacity:1;fill-rule:nonzero;stroke:none"
             d="m 0,0 c -0.359,0.531 -2.547,3.199 -3.449,4.437 -0.434,0.598 -0.582,1.118 -0.582,1.571 0,1.761 1.965,1.699 4.551,1.261 0.035,-0.003 0.097,-0.011 0.121,-0.011 0.285,0 0.519,0.234 0.519,0.511 V 12 c 0,0.269 -0.223,0.488 -0.469,0.527 -2.918,0.621 -7.445,0.969 -10.004,-1.597 -1.382,-1.387 -1.777,-3.453 -1.777,-4.989 0,-5.14 6.117,-8.324 6.117,-11.043 0,-1.628 -1.89,-1.941 -2.855,-1.941 -0.469,0 -2.016,0.113 -3.102,0.395 -0.558,0.07 -0.707,-0.25 -0.707,-0.575 v -4.546 c 0,-0.118 0.086,-0.215 0.188,-0.262 1.594,-0.61 5.734,-0.778 7.761,-0.391 2.278,0.449 5.653,2.078 5.653,6.871 C 1.965,-2.394 0.469,-0.703 0,0" /></g><g
           transform="translate(1338.2773,691.0605)"
           id="g74"><path
             id="path76"
             style="fill:#002640;fill-opacity:1;fill-rule:nonzero;stroke:none"
             d="m 0,0 c 5.492,0 9.609,3.664 9.609,9.32 v 15.891 c 0,0.246 -0.199,0.445 -0.445,0.445 H 3.563 c -0.247,0 -0.446,-0.199 -0.446,-0.445 V 10.445 C 3.117,8.781 2.598,6.598 0,6.598 c -2.621,0 -3.113,2.183 -3.113,3.847 v 14.766 c 0,0.246 -0.2,0.445 -0.457,0.445 h -5.739 c -0.246,0 -0.445,-0.199 -0.445,-0.445 V 9.32 C -9.754,3.664 -5.488,0 0,0" /></g><g
           transform="translate(1301.6211,716.6152)"
           id="g78"><path
             id="path80"
             style="fill:#002640;fill-opacity:1;fill-rule:nonzero;stroke:none"
             d="m 0,0 h -14.145 c -0.246,0 -0.445,-0.191 -0.445,-0.441 v -4.637 c 0,-0.246 0.199,-0.441 0.445,-0.441 l 3.415,0.007 c 0.171,0 0.308,-0.14 0.308,-0.304 V -24.75 c 0,-0.246 0.188,-0.449 0.445,-0.449 h 5.872 c 0.25,0 0.445,0.203 0.445,0.449 v 18.934 c 0,0.16 0.125,0.297 0.297,0.297 H 0 c 0.246,0 0.445,0.195 0.445,0.441 v 4.637 C 0.445,-0.191 0.246,0 0,0" /></g><g
           transform="translate(1368.6914,716.6152)"
           id="g82"><path
             id="path84"
             style="fill:#002640;fill-opacity:1;fill-rule:nonzero;stroke:none"
             d="m 0,0 h -14.156 c -0.246,0 -0.446,-0.191 -0.446,-0.441 v -4.637 c 0,-0.246 0.2,-0.441 0.446,-0.441 l 3.426,0.007 c 0.16,0 0.285,-0.14 0.285,-0.304 V -24.75 c 0,-0.246 0.199,-0.449 0.457,-0.449 h 5.871 c 0.25,0 0.445,0.203 0.445,0.449 v 18.934 c 0,0.16 0.137,0.297 0.297,0.297 H 0 c 0.234,0 0.445,0.195 0.445,0.441 v 4.637 C 0.445,-0.191 0.234,0 0,0" /></g><g
           transform="translate(1418.7891,715.9629)"
           id="g86"><path
             id="path88"
             style="fill:#002640;fill-opacity:1;fill-rule:nonzero;stroke:none"
             d="M 0,0 C 0.199,0.324 0.074,0.594 -0.234,0.594 H -6.676 C -7.012,0.594 -7.43,0.324 -7.629,0 L -11.781,-7.531 -16.023,0 c -0.172,0.324 -0.606,0.594 -0.926,0.594 h -6.43 c -0.336,0 -0.445,-0.27 -0.262,-0.594 l 8.309,-15.019 c 0.051,-0.118 0.074,-0.243 0.074,-0.372 v -8.574 c 0,-0.324 0.262,-0.594 0.582,-0.594 h 5.367 c 0.332,0 0.594,0.27 0.594,0.594 v 8.574 c 0,0.145 0.024,0.289 0.074,0.43 z" /></g><g
           transform="translate(101.752,872.1348)"
           id="g90"><path
             id="path92"
             style="fill:#fff200;fill-opacity:1;fill-rule:nonzero;stroke:none"
             d="M 0,0 V -69.391 H 65.789 V -200.98 h 69.383 v 131.589 h 65.797 V 0 Z" /></g><path
           id="path94"
           style="fill:#004098;fill-opacity:1;fill-rule:nonzero;stroke:none"
           d="m 101.752,671.154 h 67.586 v 133.387 h -67.586 z" /><path
           id="path96"
           style="fill:#004098;fill-opacity:1;fill-rule:nonzero;stroke:none"
           d="m 235.131,671.154 h 67.59 v 133.387 h -67.59 z" /><path
           id="path98"
           style="fill:#dcdddd;fill-opacity:1;fill-rule:nonzero;stroke:none"
           d="m 1091.75,884.019 h 20.523 v 6.832 h -20.523 z" /><g
           transform="translate(1057.0977,911.0469)"
           id="g100"><path
             id="path102"
             style="fill:#dcdddd;fill-opacity:1;fill-rule:nonzero;stroke:none"
             d="m 0,0 v -6.832 h 11.656 v -31.871 h 7.516 v 31.871 h 11.66 V 0 Z" /></g><g
           transform="translate(1266.3555,878.6875)"
           id="g104"><path
             id="path106"
             style="fill:#dcdddd;fill-opacity:1;fill-rule:nonzero;stroke:none"
             d="m 0,0 h -4.312 v 26.008 h 4.609 c 8.297,0 12.699,-3.235 12.699,-12.918 C 12.996,3.668 8.707,0 0,0 m 0.984,32.359 h -12.48 V -6.352 h 11.312 c 12.153,0 20.918,3.848 20.918,19.543 0,14.512 -8.371,19.168 -19.75,19.168" /></g><g
           transform="translate(1178.125,888.5)"
           id="g108"><path
             id="path110"
             style="fill:#dcdddd;fill-opacity:1;fill-rule:nonzero;stroke:none"
             d="M 0,0 C 2.313,6.023 4.383,11.527 4.488,11.813 4.602,11.527 6.824,6.023 9.27,0 Z m 1.312,22.504 -15.066,-38.629 h 7.641 c 0,0 1.523,4.004 3.406,8.977 H 12.16 c 2.028,-4.973 3.637,-8.977 3.637,-8.977 h 7.644 L 7.66,22.504 Z" /></g><g
           transform="translate(1139.9492,904.8164)"
           id="g112"><path
             id="path114"
             style="fill:#dcdddd;fill-opacity:1;fill-rule:nonzero;stroke:none"
             d="M 0,0 C 4.258,0 6.887,-2.242 8.309,-5.434 H 16.23 C 14.156,1.898 8.914,6.734 0.148,6.734 c -11.554,0 -17.246,-8.546 -17.246,-20.047 0,-11.46 5.575,-19.671 17.098,-19.671 8.637,0 14.008,4.812 16.172,12.031 H 8.258 c -1.403,-3.125 -4,-5.274 -8.258,-5.274 -7.406,0 -9.57,6.661 -9.57,13.176 C -9.57,-6.738 -7.098,0 0,0" /></g><g
           transform="translate(1224.6055,893.3633)"
           id="g116"><path
             id="path118"
             style="fill:#dcdddd;fill-opacity:1;fill-rule:nonzero;stroke:none"
             d="M 0,0 H -4.945 V 11.371 H 0.277 C 6.566,11.371 7.266,7.434 7.266,5.77 7.266,2.152 4.551,0 0,0 m 11.164,-2.984 c 2.516,2.089 3.82,5.043 3.82,8.5 0,5.91 -3.863,12.214 -14.707,12.214 h -12.398 v -38.636 h 7.176 v 14.508 h 4.371 c 1.472,0 2.836,0.105 4.086,0.312 l 5.285,-14.82 h 7.664 L 10.09,-3.754 c 0.39,0.25 0.742,0.504 1.074,0.77" /></g><g
           transform="translate(1443.0469,896.0664)"
           id="g120"><path
             id="path122"
             style="fill:#dcdddd;fill-opacity:1;fill-rule:nonzero;stroke:none"
             d="m 0,0 c -3.785,2.074 -6.262,3.16 -6.375,5.516 -0.078,1.961 1.781,3.535 4.676,3.675 0.129,0.004 0.285,0.012 0.426,0.012 2.64,0 5.218,-1.172 7.695,-3.199 l 3.832,5.988 -1.988,1.274 -0.071,0.027 -0.504,0.297 c -2.671,1.554 -5.597,2.367 -8.515,2.367 -0.266,0 -0.512,-0.012 -0.766,-0.023 -7.598,-0.36 -12.484,-4.977 -12.176,-11.465 0.278,-5.821 5.532,-8.727 10.18,-11.145 3.742,-1.969 6.973,-3.656 7.121,-6.594 0.094,-2.058 -1.785,-4.164 -4.82,-4.308 -0.129,-0.016 -0.274,-0.016 -0.402,-0.016 -3.461,0 -5.879,2.184 -7.196,5.047 l -6.597,-3.476 c 0.738,-1.465 1.929,-3.442 4.339,-5.329 2.547,-1.984 5.825,-2.949 9.461,-2.949 6.469,0 12.481,3.891 12.633,11.055 v 0.562 c 0,0.125 -0.004,0.239 -0.004,0.36 C 10.609,-5.531 4.539,-2.488 0,0" /></g><g
           transform="translate(1408.3242,894.9844)"
           id="g124"><path
             id="path126"
             style="fill:#dcdddd;fill-opacity:1;fill-rule:nonzero;stroke:none"
             d="M 0,0 V -6.828 -7.113 L -0.043,-8.25 c -0.043,-5.203 -1.676,-9.152 -8.047,-9.152 -6.48,0 -7.906,3.82 -7.906,9.152 l 0.027,0.195 V -6.828 0 16.16 H -23.09 V -6.973 l 0.016,-1.277 c 0.015,-3.227 0.215,-6.039 1.879,-8.969 2.718,-4.718 8.035,-6.011 13.148,-6.011 10,0 15.094,5.046 15.18,14.98 V 16.16 L 0,16.16 Z" /></g><g
           transform="translate(1358.6055,911.1172)"
           id="g128"><path
             id="path130"
             style="fill:#dcdddd;fill-opacity:1;fill-rule:nonzero;stroke:none"
             d="m 0,0 h -7.027 v -38.445 h 23.144 v 6.84 H 0.02 C 0.02,-30.066 0,0 0,0" /></g><g
           transform="translate(1321.2695,904.7851)"
           id="g132"><path
             id="path134"
             style="fill:#dcdddd;fill-opacity:1;fill-rule:nonzero;stroke:none"
             d="m 0,0 h 5.168 c 6.254,0 6.953,-3.926 6.953,-5.566 0,-3.598 -2.719,-5.754 -7.215,-5.754 H 0 Z m 0,-17.683 h 5.203 c 10.762,0.031 14.594,6.363 14.594,11.855 0,5.883 -3.832,12.152 -14.629,12.152 H -7.18 V -32.113 H 0 Z" /></g><g
           transform="translate(938.1562,888.4219)"
           id="g136"><path
             id="path138"
             style="fill:#dcdddd;fill-opacity:1;fill-rule:nonzero;stroke:none"
             d="M 0,0 C 2.313,6.074 4.398,11.602 4.512,11.887 4.621,11.605 6.856,6.074 9.317,0 Z m 1.32,22.648 -15.179,-38.867 h 7.707 c 0,0 1.527,4.024 3.418,9.035 h 14.961 c 2.015,-5.011 3.648,-9.035 3.648,-9.035 h 7.699 L 7.707,22.648 Z" /></g><g
           transform="translate(1013.8672,888.4219)"
           id="g140"><path
             id="path142"
             style="fill:#dcdddd;fill-opacity:1;fill-rule:nonzero;stroke:none"
             d="M 0,0 C 2.32,6.074 4.414,11.602 4.52,11.887 4.637,11.605 6.867,6.074 9.328,0 Z m 1.336,22.648 -15.164,-38.867 h 7.684 c 0,0 1.535,4.024 3.425,9.035 h 14.961 c 2.028,-5.011 3.653,-9.035 3.653,-9.035 h 7.707 L 7.723,22.648 Z" /></g><g
           transform="translate(991.3477,911.0586)"
           id="g144"><path
             id="path146"
             style="fill:#dcdddd;fill-opacity:1;fill-rule:nonzero;stroke:none"
             d="M 0,0 H -0.848 L -10.539,-16.789 -20.238,0 h -0.746 -0.239 -7.769 l 14.207,-23.758 V -38.84 h 7.929 v 15.082 L 7.293,0 H 0.148 Z" /></g><g
           transform="translate(791.0586,911.0469)"
           id="g148"><path
             id="path150"
             style="fill:#dcdddd;fill-opacity:1;fill-rule:nonzero;stroke:none"
             d="M 0,0 H -7.539 -19.227 V -6.867 H -7.539 V -38.82 H 0 V -6.867 H 11.711 V 0 Z" /></g><g
           transform="translate(910.2578,911.0469)"
           id="g152"><path
             id="path154"
             style="fill:#dcdddd;fill-opacity:1;fill-rule:nonzero;stroke:none"
             d="M 0,0 H -7.547 -19.238 V -6.867 H -7.547 V -38.82 H 0 V -6.867 H 11.719 V 0 Z" /></g><g
           transform="translate(872.9961,894.6992)"
           id="g156"><path
             id="path158"
             style="fill:#dcdddd;fill-opacity:1;fill-rule:nonzero;stroke:none"
             d="M 0,0 V -6.898 -7.18 l -0.039,-1.156 c -0.035,-5.262 -1.695,-9.27 -8.141,-9.27 -6.554,0 -8,3.868 -8,9.27 l 0.039,0.191 V -6.898 0 16.348 h -7.211 V -7.047 -8.336 c 0.028,-3.273 0.239,-6.113 1.918,-9.074 2.758,-4.766 8.129,-6.086 13.29,-6.086 10.128,0 15.269,5.109 15.363,15.16 V 16.348 H 0 Z" /></g><g
           transform="translate(827.1445,895.7851)"
           id="g160"><path
             id="path162"
             style="fill:#dcdddd;fill-opacity:1;fill-rule:nonzero;stroke:none"
             d="m 0,0 c -3.82,2.102 -6.34,3.199 -6.453,5.582 -0.074,1.98 1.805,3.57 4.734,3.715 0.149,0.012 0.278,0.012 0.422,0.012 2.668,0 5.289,-1.184 7.781,-3.231 l 3.895,6.059 -2.02,1.289 -0.062,0.027 -0.52,0.301 c -2.707,1.57 -5.664,2.391 -8.625,2.391 -0.246,0 -0.511,-0.012 -0.769,-0.024 -7.66,-0.359 -12.625,-5.031 -12.317,-11.601 0.274,-5.883 5.61,-8.821 10.301,-11.274 3.789,-1.984 7.059,-3.703 7.199,-6.672 0.094,-2.09 -1.804,-4.215 -4.863,-4.359 -0.144,0 -0.273,-0.012 -0.414,-0.012 -3.492,0 -5.941,2.195 -7.277,5.102 l -6.688,-3.52 c 0.766,-1.465 1.953,-3.48 4.414,-5.387 2.571,-2.015 5.879,-2.98 9.555,-2.98 6.547,0 12.637,3.93 12.785,11.18 v 0.57 0.367 C 10.746,-5.594 4.602,-2.523 0,0" /></g></g></g><g
       id="g164"><g
         clip-path="url(#clipPath170)"
         id="g166"><g
           transform="translate(1454,101.6445)"
           id="g172"><path
             id="path174"
             style="fill:#ffffff;fill-opacity:1;fill-rule:nonzero;stroke:none"
             d="m 0,0 c 0,-24.652 -19.992,-44.656 -44.656,-44.656 h -242.43 v 176.523 c 0,24.653 19.996,44.656 44.656,44.656 H 0 Z" /></g></g></g><g
       id="g176"><g
         id="g178"><g
           id="g184"><g
             id="g186"><path
               id="path196"
               style="fill:url(#linearGradient194);stroke:none"
               d="m 1374.961,163.696 v -16.813 h 18.457 c 0.582,0 1.684,0.086 2.203,0.195 v 0 c 3.547,0.766 6.504,3.922 6.504,8.211 v 0 c 0,4.277 -2.957,7.442 -6.504,8.207 v 0 c -0.519,0.113 -1.621,0.2 -2.203,0.2 v 0 z" /></g></g></g></g><g
       id="g198"><g
         id="g200"><g
           id="g206"><g
             id="g208"><path
               id="path218"
               style="fill:url(#linearGradient216);stroke:none"
               d="m 1391.27,263.281 c -17.618,0 -31.899,-14.277 -31.899,-31.898 v 0 -33.133 h 45.141 c 1.035,0 2.324,-0.075 3.113,-0.11 v 0 c 10.227,-0.519 17.754,-5.761 17.754,-14.875 v 0 c 0,-7.156 -5.156,-13.277 -14.527,-14.648 v 0 -0.359 c 10.359,-0.719 18.285,-6.418 18.285,-15.395 v 0 c 0,-9.703 -8.703,-15.945 -20.301,-15.945 v 0 h -49.465 V 71.887 h 46.781 c 17.621,0 31.899,14.277 31.899,31.894 v 0 159.5 z" /></g></g></g></g><g
       id="g220"><g
         id="g222"><g
           id="g228"><g
             id="g230"><path
               id="path240"
               style="fill:url(#linearGradient238);stroke:none"
               d="m 1374.961,188.731 v -15.528 h 16.742 c 0.606,0 1.481,0.086 1.817,0.137 v 0 c 3.46,0.594 6.414,3.41 6.414,7.628 v 0 c 0,4.204 -2.954,7.032 -6.414,7.614 v 0 c -0.336,0.063 -1.211,0.149 -1.817,0.149 v 0 z" /></g></g></g></g><g
       id="g242"><g
         id="g244"><g
           id="g250"><g
             id="g252"><path
               id="path262"
               style="fill:url(#linearGradient260);stroke:none"
               d="m 1214.758,263.281 c -17.618,0 -31.899,-14.277 -31.899,-31.898 v 0 -78.777 c 8.953,-4.34 18.187,-7.161 27.598,-7.161 v 0 c 11.027,0 17.086,6.739 17.086,15.789 v 0 37.016 h 27.433 v -37.016 c 0,-14.465 -8.878,-26.086 -39.378,-26.086 v 0 c -18.348,0 -32.739,3.969 -32.739,3.969 v 0 -67.23 h 46.786 c 17.616,0 31.894,14.277 31.894,31.894 v 0 159.5 z" /></g></g></g></g><g
       id="g264"><g
         id="g266"><g
           id="g272"><g
             id="g274"><path
               id="path284"
               style="fill:url(#linearGradient282);stroke:none"
               d="m 1303.019,263.281 c -17.617,0 -31.909,-14.277 -31.909,-31.898 v 0 -41.762 c 8.085,6.937 22.069,11.262 44.769,10.238 v 0 c 12.164,-0.531 25.046,-3.797 25.046,-3.797 v 0 -13.511 c -6.453,3.273 -14.179,6.304 -24.159,7.058 v 0 c -17.234,1.297 -27.606,-7.121 -27.606,-22.031 v 0 c 0,-14.898 10.372,-23.316 27.606,-22.019 v 0 c 9.98,0.753 17.816,3.855 24.159,7.047 v 0 -13.5 c 0,0 -12.882,-3.255 -25.046,-3.809 v 0 c -22.7,-1.028 -36.684,3.312 -44.769,10.25 v 0 -73.66 h 46.796 c 17.606,0 31.895,14.277 31.895,31.894 v 0 159.5 z" /></g></g></g></g><g
       id="g286"><g
         clip-path="url(#clipPath292)"
         id="g288"><g
           transform="translate(1279.625,508.5508)"
           id="g294"><path
             id="path296"
             style="fill:#ffffff;fill-opacity:1;fill-rule:nonzero;stroke:none"
             d="M 0,0 C 27.562,0 50.441,-20.219 54.738,-46.57 39.578,-37.852 3.789,-17.227 3.789,-17.227 L -34.008,-82.82 c 0,0 30.934,-17.824 46.426,-26.77 -4.055,-0.914 -8.227,-1.48 -12.418,-1.48 -30.617,0 -55.531,24.918 -55.531,55.535 C -55.531,-24.914 -30.617,0 0,0 m 126.418,-87.883 -8.066,4.656 c 1.347,7.09 2.027,14.293 2.027,21.477 0,63.293 -51.484,114.793 -114.785,114.793 -63.301,0 -114.805,-51.5 -114.805,-114.793 0,-63.305 51.504,-114.805 114.805,-114.805 27.664,0 54.008,9.84 74.847,27.817 l 8.184,-4.735 z" /></g><g
           transform="translate(1409.4336,418.7266)"
           id="g298"><path
             id="path300"
             style="fill:#ffffff;fill-opacity:1;fill-rule:nonzero;stroke:none"
             d="m 0,0 -37.801,-65.602 23.274,-13.402 37.804,65.59 z" /></g><g
           transform="translate(1440.4648,400.8398)"
           id="g302"><path
             id="path304"
             style="fill:#ffffff;fill-opacity:1;fill-rule:nonzero;stroke:none"
             d="m 0,0 -3.965,-6.871 -33.832,-58.707 17.176,-9.891 37.781,65.594 z" /></g><g
           transform="translate(1279.625,389.543)"
           id="g306"><path
             id="path308"
             style="fill:#004098;fill-opacity:1;fill-rule:nonzero;stroke:none"
             d="m 0,0 c -35.059,0 -63.492,28.41 -63.492,63.473 0,35.062 28.433,63.48 63.492,63.48 35.051,0 63.477,-28.418 63.477,-63.48 0,-1.727 -0.09,-3.434 -0.227,-5.114 L 6.707,90.938 -23.152,39.098 30.832,7.984 C 21.695,2.902 11.195,0 0,0 M 70.063,-14.602 56.129,-6.566 85.98,45.262 100.043,37.164 V 37.16 l 9.316,-5.371 c 1.996,8.172 3.09,16.688 3.09,25.469 0,59.008 -47.851,106.847 -106.855,106.847 -59.028,0 -106.852,-47.839 -106.852,-106.847 0,-59.028 47.824,-106.848 106.852,-106.848 28.625,0 54.613,11.274 73.808,29.61 z" /></g><g
           transform="translate(1365.9023,365.5859)"
           id="g310"><path
             id="path312"
             style="fill:#d80c18;fill-opacity:1;fill-rule:nonzero;stroke:none"
             d="M 0,0 -16.215,9.355 13.652,61.191 29.855,51.859 Z" /></g><g
           transform="translate(1392,350.5586)"
           id="g314"><path
             id="path316"
             style="fill:#d80c18;fill-opacity:1;fill-rule:nonzero;stroke:none"
             d="M 0,0 -10.09,5.805 19.781,57.652 29.863,51.84 Z" /></g><g
           transform="translate(1416.918,336.2109)"
           id="g318"><path
             id="path320"
             style="fill:#d80c18;fill-opacity:1;fill-rule:nonzero;stroke:none"
             d="m 0,0 -3.398,1.949 29.863,51.84 3.398,-1.953 z" /></g></g></g><g
       id="g322"><g
         clip-path="url(#clipPath328)"
         id="g324"><g
           transform="translate(1150.0974,777.0268)"
           id="g330"><path
             id="path332"
             style="fill:#ffffff;fill-opacity:1;fill-rule:nonzero;stroke:none"
             d="m 0,0 c 1.033,-1.389 1.848,-2.921 2.396,-4.602 0.564,-1.649 0.87,-3.421 0.87,-5.287 0,-1.862 -0.306,-3.639 -0.87,-5.304 -0.548,-1.655 -1.363,-3.224 -2.396,-4.598 -1.395,-1.878 -0.99,-4.55 0.886,-5.957 1.884,-1.387 4.531,-1.001 5.953,0.903 1.538,2.094 2.794,4.403 3.629,6.924 0.842,2.52 1.299,5.226 1.299,8.032 0,2.781 -0.457,5.49 -1.299,8.015 C 9.633,0.652 8.377,2.993 6.839,5.059 5.424,6.939 2.77,7.348 0.89,5.931 -0.99,4.539 -1.391,1.902 0,0" /></g><g
           transform="translate(1164.694,784.9711)"
           id="g334"><path
             id="path336"
             style="fill:#ffffff;fill-opacity:1;fill-rule:nonzero;stroke:none"
             d="m 0,0 c 3.179,-5.2 5.011,-11.298 5.011,-17.833 0,-6.548 -1.832,-12.626 -5.011,-17.83 -1.256,-1.979 -0.616,-4.618 1.371,-5.842 1.991,-1.224 4.622,-0.604 5.854,1.391 3.982,6.485 6.315,14.12 6.307,22.281 C 13.54,-9.661 11.207,-2.029 7.225,4.471 5.993,6.472 3.362,7.056 1.371,5.848 -0.616,4.602 -1.256,1.973 0,0" /></g><g
           transform="translate(1180.1232,793.0184)"
           id="g338"><path
             id="path340"
             style="fill:#ffffff;fill-opacity:1;fill-rule:nonzero;stroke:none"
             d="m 0,0 c 4.443,-7.576 6.995,-16.409 6.995,-25.881 0,-9.452 -2.552,-18.291 -7.011,-25.897 -1.166,-2.027 -0.482,-4.641 1.542,-5.818 2.027,-1.216 4.634,-0.508 5.826,1.51 5.182,8.858 8.155,19.203 8.155,30.205 0,11.002 -2.973,21.327 -8.155,30.203 C 6.16,6.351 3.561,7.042 1.526,5.842 -0.498,4.659 -1.182,2.079 0,0" /></g><g
           transform="translate(1195.5427,801.1552)"
           id="g342"><path
             id="path344"
             style="fill:#ffffff;fill-opacity:1;fill-rule:nonzero;stroke:none"
             d="M 0,0 C 5.715,-10.032 8.973,-21.631 8.973,-34.018 8.973,-46.397 5.715,-57.983 0,-68.03 c -1.161,-2.035 -0.445,-4.649 1.589,-5.802 2.035,-1.16 4.642,-0.453 5.795,1.582 6.438,11.27 10.094,24.349 10.094,38.232 0,13.876 -3.656,26.95 -10.094,38.231 C 6.231,6.212 3.64,6.966 1.621,5.81 -0.445,4.636 -1.161,2.045 0,0" /></g></g></g></g></svg>